# xmcd
#
# Track frame offsets:
#	150
#	20665
#	49570
#	66184
#	107489
#	144868
#	166161
#	192043
#	213401
#	241512
#	259564
#
# Disc length: 3921 seconds
#
# Revision: 0
# Processed by: cddbd v1.4PL0 Copyright (c) Steve Scherf et al.
# Submitted via: dBpowerAMP V4.0
#
DISCID=850f4f0b
DTITLE=Jason Ricci - Feel Good Funk
DYEAR=2002
DGENRE=Blues
TTITLE0=From The Soul
TTITLE1=Feel Good Funk
TTITLE2=Comin' Home Baby
TTITLE3=Drifting And Drifting
TTITLE4=Hip Shake
TTITLE5=I'm Just A Playboy
TTITLE6=Everything I Play Gonna Be Funky
TTITLE7=Scratch My Back
TTITLE8=I-55
TTITLE9=Careless Love
TTITLE10=Mississippi Mood
EXTD=
EXTT0=
EXTT1=
EXTT2=
EXTT3=
EXTT4=
EXTT5=
EXTT6=
EXTT7=
EXTT8=
EXTT9=
EXTT10=
PLAYORDER=
